# xmcd
#
# Track frame offsets:
#	150
#	15688
#	35817
#	53337
#	75135
#	97377
#	112811
#	124711
#	145615
#	175689
#	195944
#	223971
#	241289
#
# Disc length: 3415
#
# Revision: 3
# Processed by: cddbd v1.5.1PL0 Copyright (c) Steve Scherf et al.
# Submitted via: CDex 1.40Beta8
# Normalized: r2:DSETVAR1,TDELIM( - )
#
DISCID=a20d550d
DTITLE=Various Artist - Radio Uno - 25 años de éxitos
DYEAR=2000
DGENRE=Other
TTITLE0=Smokie - Living next doors to Alice
TTITLE1=Darril Hall and John Oates - Maniater
TTITLE2=Crasth Test Dummies - Mmm mmm mmm
TTITLE3=Eurytmics - Sweet Dreams
TTITLE4=Claudio Baglioni - Y tu
TTITLE5=Dawn - Tie a yellow ribbon round the ole oak tree
TTITLE6=Bucks Fizz - Making your mind up
TTITLE7=War - Galaxy
TTITLE8=Al Stewar - Year of the Cat
TTITLE9=Boy mixs girl - Waiting for star to fall
TTITLE10=Tequila - Rock del ascensor
TTITLE11=Modern talking - You're my heart you're my soul
TTITLE12=Jimmy Castor Bunch - Whiter shape of pale
EXTD=YEAR: 2000 ID3G: 12
EXTT0=
EXTT1=
EXTT2=
EXTT3=
EXTT4=
EXTT5=
EXTT6=
EXTT7=
EXTT8=
EXTT9=
EXTT10=
EXTT11=
EXTT12=
PLAYORDER=
